<svg width="24" height="25" viewBox="0 0 24 25" fill="none" xmlns="http://www.w3.org/2000/svg">
<g id="icon-close">
<g id="icn/general/close">
<g id="icn/general/close_2">
<path id="close" fill-rule="evenodd" clip-rule="evenodd" d="M20.0417 5.03157C19.6017 4.61514 18.9132 4.61439 18.4723 5.02987L12.5008 10.6572L6.52918 5.02987C6.08829 4.61439 5.39979 4.61514 4.95979 5.03157L4.89437 5.0935C4.41731 5.54502 4.41814 6.30479 4.89618 6.75527L10.7688 12.2893L4.89618 17.8233C4.41814 18.2738 4.41731 19.0336 4.89437 19.4851L4.9598 19.547C5.39979 19.9635 6.08829 19.9642 6.52919 19.5487L12.5008 13.9214L18.4723 19.5487C18.9132 19.9642 19.6017 19.9635 20.0417 19.547L20.1071 19.4851C20.5842 19.0336 20.5834 18.2738 20.1053 17.8233L14.2327 12.2893L20.1053 6.75527C20.5834 6.30479 20.5842 5.54502 20.1071 5.0935L20.0417 5.03157Z" fill="#0A1629"/>
</g>
</g>
</g>
</svg>
