<svg width="14" height="14" viewBox="0 0 14 14" fill="currentColor" xmlns="http://www.w3.org/2000/svg">
<g id="icon-ggst">
<path id="Vector" d="M5.6875 1.3125H1.3125V5.6875C1.3125 5.91956 1.40469 6.14212 1.56878 6.30622C1.73288 6.47031 1.95544 6.5625 2.1875 6.5625H5.6875C5.91956 6.5625 6.14212 6.47031 6.30622 6.30622C6.47031 6.14212 6.5625 5.91956 6.5625 5.6875V2.1875C6.5625 1.95544 6.47031 1.73288 6.30622 1.56878C6.14212 1.40469 5.91956 1.3125 5.6875 1.3125ZM5.6875 5.6875H2.1875V2.1875H5.6875V5.6875ZM5.6875 7.4375H2.1875C1.95544 7.4375 1.73288 7.52969 1.56878 7.69378C1.40469 7.85788 1.3125 8.08044 1.3125 8.3125V12.6875H5.6875C5.91956 12.6875 6.14212 12.5953 6.30622 12.4312C6.47031 12.2671 6.5625 12.0446 6.5625 11.8125V8.3125C6.5625 8.08044 6.47031 7.85788 6.30622 7.69378C6.14212 7.52969 5.91956 7.4375 5.6875 7.4375ZM5.6875 11.8125H2.1875V8.3125H5.6875V11.8125ZM8.3125 1.3125C8.08044 1.3125 7.85788 1.40469 7.69378 1.56878C7.52969 1.73288 7.4375 1.95544 7.4375 2.1875V5.6875C7.4375 5.91956 7.52969 6.14212 7.69378 6.30622C7.85788 6.47031 8.08044 6.5625 8.3125 6.5625H11.8125C12.0446 6.5625 12.2671 6.47031 12.4312 6.30622C12.5953 6.14212 12.6875 5.91956 12.6875 5.6875V1.3125H8.3125ZM11.8125 5.6875H8.3125V2.1875H11.8125V5.6875ZM11.8125 7.4375H8.3125C8.08044 7.4375 7.85788 7.52969 7.69378 7.69378C7.52969 7.85788 7.4375 8.08044 7.4375 8.3125V11.8125C7.4375 12.0446 7.52969 12.2671 7.69378 12.4312C7.85788 12.5953 8.08044 12.6875 8.3125 12.6875H12.6875V8.3125C12.6875 8.08044 12.5953 7.85788 12.4312 7.69378C12.2671 7.52969 12.0446 7.4375 11.8125 7.4375ZM11.8125 11.8125H8.3125V8.3125H11.8125V11.8125Z" fill="currentColor"/>
</g>
</svg>
