<svg width="18" height="18" viewBox="0 0 18 18" fill="currentColor" xmlns="http://www.w3.org/2000/svg">
<g id="icon-more">
<g id="&#230;&#155;&#180;&#229;&#164;&#154;">
<path id="Vector" d="M8.99805 1.14062C4.65027 1.14062 1.14062 4.65027 1.14062 8.99805C1.14062 13.3458 4.65027 16.8555 8.99805 16.8555C13.3458 16.8555 16.8555 13.3458 16.8555 8.99805C16.8555 4.65027 13.3458 1.14062 8.99805 1.14062ZM5.33125 10.3076C4.59789 10.3076 4.02168 9.73141 4.02168 8.99805C4.02168 8.26469 4.59789 7.68848 5.33125 7.68848C6.06461 7.68848 6.64082 8.26469 6.64082 8.99805C6.64082 9.73141 6.06461 10.3076 5.33125 10.3076ZM8.99805 10.3076C8.26469 10.3076 7.68848 9.73141 7.68848 8.99805C7.68848 8.26469 8.26469 7.68848 8.99805 7.68848C9.73141 7.68848 10.3076 8.26469 10.3076 8.99805C10.3076 9.73141 9.73141 10.3076 8.99805 10.3076ZM12.6648 10.3076C11.9315 10.3076 11.3553 9.73141 11.3553 8.99805C11.3553 8.26469 11.9315 7.68848 12.6648 7.68848C13.3982 7.68848 13.9744 8.26469 13.9744 8.99805C13.9744 9.73141 13.3982 10.3076 12.6648 10.3076Z" fill="currentColor"/>
</g>
</g>
</svg>
