<svg width="18" height="18" viewBox="0 0 18 18" fill="currentColor" xmlns="http://www.w3.org/2000/svg">
<g id="icon-cyguanli">
<g id="&#230;&#136;&#144;&#229;&#145;&#152; 1">
<path id="Vector" d="M10.9342 9.67804C11.9211 9.03307 12.5724 7.90439 12.5724 6.62791C12.5724 4.62584 10.9737 3 9 3C7.02632 3 5.42763 4.62584 5.42763 6.62791C5.42763 7.90439 6.07895 9.02636 7.06579 9.67804C4.70395 10.5044 3 12.8021 3 15.4961C3 15.7716 3.22368 16 3.49342 16C3.76316 16 3.98684 15.7716 3.98684 15.4961C3.98684 12.661 6.23684 10.3566 9 10.3566C11.7632 10.3566 14.0132 12.661 14.0132 15.4961C14.0132 15.7716 14.2368 16 14.5066 16C14.7763 16 15 15.7716 15 15.4961C15 12.8021 13.2961 10.5044 10.9342 9.67804ZM6.42105 6.62791C6.42105 5.18346 7.57895 4.00775 9.00658 4.00775C10.4342 4.00775 11.5921 5.18346 11.5921 6.62791C11.5921 8.07235 10.4342 9.24806 9.00658 9.24806C7.57895 9.24806 6.42105 8.07235 6.42105 6.62791Z" fill="currentColor"/>
</g>
</g>
</svg>
