<svg width="20" height="20" viewBox="0 0 20 20" fill="currentColor" xmlns="http://www.w3.org/2000/svg">
<g id="icon-yulan">
<g id="&#233;&#162;&#132;&#232;&#167;&#136;">
<path id="Vector" d="M18.6857 9.7625C17.1494 6.33535 13.7813 4.08984 9.99961 4.08984C6.21797 4.08984 2.8498 6.33535 1.31348 9.7625C1.25488 9.93984 1.25488 10.0578 1.31348 10.2352C2.8498 13.6623 6.21777 15.9078 9.99961 15.9078C13.7814 15.9078 17.1494 13.6617 18.6857 10.2352C18.7443 10.0578 18.7443 9.93984 18.6857 9.7625ZM9.99961 13.31C8.17852 13.31 6.68848 11.8199 6.68848 9.99883C6.68848 8.17773 8.17852 6.6877 9.99961 6.6877C11.8207 6.6877 13.3107 8.17773 13.3107 9.99883C13.3107 11.8199 11.8207 13.31 9.99961 13.31Z" fill="currentColor"/>
<path id="Vector_2" d="M12.3633 10C12.3633 11.3 11.2996 12.3633 10 12.3633C8.70039 12.3633 7.63672 11.3 7.63672 10C7.63672 8.7 8.70039 7.63672 10 7.63672C11.2996 7.63672 12.3633 8.7002 12.3633 10Z" fill="currentColor"/>
</g>
</g>
</svg>
