<svg width="18" height="16" viewBox="0 0 18 16" fill="white" xmlns="http://www.w3.org/2000/svg">
<g id="icon-scfj">
<path id="Rectangle" d="M2.19927 12.0531C2.19615 12.4427 2.34791 12.8175 2.62114 13.0952C2.89438 13.3729 3.26673 13.5307 3.6563 13.5339H6.38655C6.59725 13.5335 6.80532 13.4871 6.99624 13.398C7.18715 13.3089 7.35631 13.1791 7.4919 13.0179L8.20022 12.1781C8.33581 12.0169 8.50497 11.8871 8.69588 11.798C8.8868 11.7089 9.09488 11.6625 9.30557 11.6621H14.5826C14.9722 11.6589 15.3445 11.5012 15.6178 11.2235C15.891 10.9458 16.0428 10.5709 16.0397 10.1814V1.68779C16.0428 1.29823 15.891 0.923377 15.6178 0.645688C15.3445 0.367999 14.9722 0.210212 14.5826 0.207031H3.6563C3.26673 0.210212 2.89438 0.367999 2.62114 0.645688C2.34791 0.923377 2.19615 1.29823 2.19927 1.68779V12.0531Z" fill="white"/>
<path id="Rectangle_2" d="M0.500057 3.94961C0.496097 3.43033 0.698567 2.93074 1.06293 2.56072C1.4273 2.19071 1.92372 1.98059 2.443 1.97656L5.67086 1.97656C5.92399 1.97694 6.17456 2.02718 6.40828 2.12441C6.64199 2.22164 6.85426 2.36395 7.03297 2.54323L7.84188 3.35072C8.02059 3.52999 8.23286 3.67231 8.46658 3.76954C8.70029 3.86677 8.95087 3.917 9.204 3.91738H15.557C16.0761 3.92141 16.5724 4.13139 16.9367 4.50117C17.301 4.87095 17.5036 5.37027 17.4999 5.88937V13.8156C17.5019 14.0727 17.4533 14.3278 17.3567 14.5661C17.2602 14.8044 17.1176 15.0214 16.9372 15.2047C16.7568 15.3879 16.542 15.5338 16.3052 15.6341C16.0684 15.7344 15.8141 15.787 15.557 15.789H2.443C1.92372 15.7849 1.4273 15.5748 1.06293 15.2048C0.698567 14.8348 0.496097 14.3352 0.500057 13.8159V3.94961Z" fill="currentColor"/>
<path id="Path 5" d="M11.2596 8.53993C11.352 8.53986 11.4425 8.56692 11.5197 8.61774C11.5969 8.66857 11.6576 8.74094 11.6941 8.82588C11.7305 8.91083 11.7413 9.00461 11.725 9.09562C11.7087 9.18662 11.6661 9.27085 11.6024 9.33787L9.45371 11.6024C9.40834 11.6503 9.3537 11.6884 9.29311 11.7144C9.23252 11.7405 9.16727 11.7539 9.10132 11.7539C9.03537 11.7539 8.97011 11.7405 8.90953 11.7144C8.84894 11.6884 8.79429 11.6503 8.74892 11.6024L6.60021 9.33822C6.53652 9.27121 6.49389 9.18698 6.4776 9.09597C6.46132 9.00497 6.47209 8.91118 6.50858 8.82624C6.54508 8.7413 6.6057 8.66893 6.68292 8.6181C6.76015 8.56727 6.85059 8.54022 6.94304 8.54029L7.80012 8.54029C7.86455 8.54029 7.92635 8.51469 7.97191 8.46913C8.01748 8.42357 8.04307 8.36177 8.04307 8.29733L8.04307 7.35951C8.04303 7.29571 8.05555 7.23253 8.07993 7.17358C8.10431 7.11463 8.14007 7.06106 8.18517 7.01593C8.23026 6.97081 8.2838 6.93501 8.34274 6.91059C8.40167 6.88616 8.46484 6.87359 8.52863 6.87359L9.674 6.87359C9.80278 6.87359 9.92628 6.92475 10.0173 7.01581C10.1084 7.10687 10.1596 7.23037 10.1596 7.35915L10.1596 8.29733C10.1596 8.36177 10.1852 8.42356 10.2307 8.46913C10.2763 8.51469 10.3381 8.54029 10.4025 8.54029L11.2596 8.53993Z" fill="white" fill-opacity="0.9"/>
</g>
</svg>
